<mxfile host="app.diagrams.net" agent="Mozilla/5.0 (Windows NT 10.0; Win64; x64) AppleWebKit/537.36 (KHTML, like Gecko) Chrome/133.0.0.0 Safari/537.36" version="26.0.15">
  <diagram name="Página-1" id="3ansvYubf5UhHugqNeSQ">
    <mxGraphModel dx="819" dy="446" grid="1" gridSize="10" guides="1" tooltips="1" connect="1" arrows="1" fold="1" page="1" pageScale="1" pageWidth="827" pageHeight="1169" math="0" shadow="0">
      <root>
        <mxCell id="0" />
        <mxCell id="1" parent="0" />
        <mxCell id="3lcU_TLY3dDV2jvTnfjc-1" value="Usuario" style="shape=umlLifeline;perimeter=lifelinePerimeter;whiteSpace=wrap;html=1;container=1;dropTarget=0;collapsible=0;recursiveResize=0;outlineConnect=0;portConstraint=eastwest;newEdgeStyle={&quot;curved&quot;:0,&quot;rounded&quot;:0};participant=umlActor;" vertex="1" parent="1">
          <mxGeometry x="100" y="100" width="30" height="700" as="geometry" />
        </mxCell>
        <mxCell id="3lcU_TLY3dDV2jvTnfjc-20" value="" style="html=1;points=[[0,0,0,0,5],[0,1,0,0,-5],[1,0,0,0,5],[1,1,0,0,-5]];perimeter=orthogonalPerimeter;outlineConnect=0;targetShapes=umlLifeline;portConstraint=eastwest;newEdgeStyle={&quot;curved&quot;:0,&quot;rounded&quot;:0};" vertex="1" parent="3lcU_TLY3dDV2jvTnfjc-1">
          <mxGeometry x="10" y="80" width="10" height="130" as="geometry" />
        </mxCell>
        <mxCell id="3lcU_TLY3dDV2jvTnfjc-30" value="" style="html=1;points=[[0,0,0,0,5],[0,1,0,0,-5],[1,0,0,0,5],[1,1,0,0,-5]];perimeter=orthogonalPerimeter;outlineConnect=0;targetShapes=umlLifeline;portConstraint=eastwest;newEdgeStyle={&quot;curved&quot;:0,&quot;rounded&quot;:0};" vertex="1" parent="3lcU_TLY3dDV2jvTnfjc-1">
          <mxGeometry x="10" y="280" width="10" height="100" as="geometry" />
        </mxCell>
        <mxCell id="3lcU_TLY3dDV2jvTnfjc-2" value="Sistema" style="shape=umlLifeline;perimeter=lifelinePerimeter;whiteSpace=wrap;html=1;container=1;dropTarget=0;collapsible=0;recursiveResize=0;outlineConnect=0;portConstraint=eastwest;newEdgeStyle={&quot;curved&quot;:0,&quot;rounded&quot;:0};" vertex="1" parent="1">
          <mxGeometry x="530" y="100" width="105" height="700" as="geometry" />
        </mxCell>
        <mxCell id="3lcU_TLY3dDV2jvTnfjc-16" value="" style="html=1;points=[[0,0,0,0,5],[0,1,0,0,-5],[1,0,0,0,5],[1,1,0,0,-5]];perimeter=orthogonalPerimeter;outlineConnect=0;targetShapes=umlLifeline;portConstraint=eastwest;newEdgeStyle={&quot;curved&quot;:0,&quot;rounded&quot;:0};" vertex="1" parent="3lcU_TLY3dDV2jvTnfjc-2">
          <mxGeometry x="45" y="170" width="10" height="40" as="geometry" />
        </mxCell>
        <mxCell id="3lcU_TLY3dDV2jvTnfjc-17" value="Acceso al Sistema" style="html=1;align=left;spacingLeft=2;endArrow=block;rounded=0;edgeStyle=orthogonalEdgeStyle;curved=0;rounded=0;" edge="1" target="3lcU_TLY3dDV2jvTnfjc-16" parent="3lcU_TLY3dDV2jvTnfjc-2" source="3lcU_TLY3dDV2jvTnfjc-16">
          <mxGeometry relative="1" as="geometry">
            <mxPoint x="45" y="150" as="sourcePoint" />
            <Array as="points">
              <mxPoint x="75" y="170" />
              <mxPoint x="75" y="210" />
            </Array>
            <mxPoint as="offset" />
          </mxGeometry>
        </mxCell>
        <mxCell id="3lcU_TLY3dDV2jvTnfjc-25" value="" style="html=1;points=[[0,0,0,0,5],[0,1,0,0,-5],[1,0,0,0,5],[1,1,0,0,-5]];perimeter=orthogonalPerimeter;outlineConnect=0;targetShapes=umlLifeline;portConstraint=eastwest;newEdgeStyle={&quot;curved&quot;:0,&quot;rounded&quot;:0};" vertex="1" parent="3lcU_TLY3dDV2jvTnfjc-2">
          <mxGeometry x="45" y="340" width="10" height="40" as="geometry" />
        </mxCell>
        <mxCell id="3lcU_TLY3dDV2jvTnfjc-26" value="Actualiza Sistema" style="html=1;align=left;spacingLeft=2;endArrow=block;rounded=0;edgeStyle=orthogonalEdgeStyle;curved=0;rounded=0;" edge="1" target="3lcU_TLY3dDV2jvTnfjc-25" parent="3lcU_TLY3dDV2jvTnfjc-2" source="3lcU_TLY3dDV2jvTnfjc-25">
          <mxGeometry x="0.0025" relative="1" as="geometry">
            <mxPoint x="50" y="320" as="sourcePoint" />
            <Array as="points">
              <mxPoint x="80" y="340" />
              <mxPoint x="80" y="380" />
            </Array>
            <mxPoint as="offset" />
          </mxGeometry>
        </mxCell>
        <mxCell id="3lcU_TLY3dDV2jvTnfjc-3" value="Banco" style="shape=umlLifeline;perimeter=lifelinePerimeter;whiteSpace=wrap;html=1;container=1;dropTarget=0;collapsible=0;recursiveResize=0;outlineConnect=0;portConstraint=eastwest;newEdgeStyle={&quot;curved&quot;:0,&quot;rounded&quot;:0};" vertex="1" parent="1">
          <mxGeometry x="380" y="100" width="100" height="700" as="geometry" />
        </mxCell>
        <mxCell id="3lcU_TLY3dDV2jvTnfjc-7" value="" style="html=1;points=[[0,0,0,0,5],[0,1,0,0,-5],[1,0,0,0,5],[1,1,0,0,-5]];perimeter=orthogonalPerimeter;outlineConnect=0;targetShapes=umlLifeline;portConstraint=eastwest;newEdgeStyle={&quot;curved&quot;:0,&quot;rounded&quot;:0};" vertex="1" parent="3lcU_TLY3dDV2jvTnfjc-3">
          <mxGeometry x="45" y="120" width="10" height="50" as="geometry" />
        </mxCell>
        <mxCell id="3lcU_TLY3dDV2jvTnfjc-31" value="" style="html=1;points=[[0,0,0,0,5],[0,1,0,0,-5],[1,0,0,0,5],[1,1,0,0,-5]];perimeter=orthogonalPerimeter;outlineConnect=0;targetShapes=umlLifeline;portConstraint=eastwest;newEdgeStyle={&quot;curved&quot;:0,&quot;rounded&quot;:0};" vertex="1" parent="3lcU_TLY3dDV2jvTnfjc-3">
          <mxGeometry x="45" y="310" width="10" height="30" as="geometry" />
        </mxCell>
        <mxCell id="3lcU_TLY3dDV2jvTnfjc-4" value="Cajero" style="shape=umlLifeline;perimeter=lifelinePerimeter;whiteSpace=wrap;html=1;container=1;dropTarget=0;collapsible=0;recursiveResize=0;outlineConnect=0;portConstraint=eastwest;newEdgeStyle={&quot;curved&quot;:0,&quot;rounded&quot;:0};" vertex="1" parent="1">
          <mxGeometry x="230" y="100" width="100" height="700" as="geometry" />
        </mxCell>
        <mxCell id="3lcU_TLY3dDV2jvTnfjc-18" value="" style="html=1;points=[[0,0,0,0,5],[0,1,0,0,-5],[1,0,0,0,5],[1,1,0,0,-5]];perimeter=orthogonalPerimeter;outlineConnect=0;targetShapes=umlLifeline;portConstraint=eastwest;newEdgeStyle={&quot;curved&quot;:0,&quot;rounded&quot;:0};" vertex="1" parent="3lcU_TLY3dDV2jvTnfjc-4">
          <mxGeometry x="45" y="80" width="10" height="130" as="geometry" />
        </mxCell>
        <mxCell id="3lcU_TLY3dDV2jvTnfjc-29" value="" style="html=1;points=[[0,0,0,0,5],[0,1,0,0,-5],[1,0,0,0,5],[1,1,0,0,-5]];perimeter=orthogonalPerimeter;outlineConnect=0;targetShapes=umlLifeline;portConstraint=eastwest;newEdgeStyle={&quot;curved&quot;:0,&quot;rounded&quot;:0};" vertex="1" parent="3lcU_TLY3dDV2jvTnfjc-4">
          <mxGeometry x="45" y="280" width="10" height="100" as="geometry" />
        </mxCell>
        <mxCell id="3lcU_TLY3dDV2jvTnfjc-8" value="Ingresar tarjeta" style="endArrow=open;endFill=1;endSize=12;html=1;rounded=0;" edge="1" parent="1" source="3lcU_TLY3dDV2jvTnfjc-1" target="3lcU_TLY3dDV2jvTnfjc-4">
          <mxGeometry width="160" relative="1" as="geometry">
            <mxPoint x="170" y="170" as="sourcePoint" />
            <mxPoint x="330" y="170" as="targetPoint" />
            <Array as="points">
              <mxPoint x="230" y="180" />
            </Array>
          </mxGeometry>
        </mxCell>
        <mxCell id="3lcU_TLY3dDV2jvTnfjc-9" value="Envía datos" style="endArrow=open;endFill=1;endSize=12;html=1;rounded=0;" edge="1" parent="1" source="3lcU_TLY3dDV2jvTnfjc-18">
          <mxGeometry width="160" relative="1" as="geometry">
            <mxPoint x="300" y="220" as="sourcePoint" />
            <mxPoint x="429.5" y="220" as="targetPoint" />
          </mxGeometry>
        </mxCell>
        <mxCell id="3lcU_TLY3dDV2jvTnfjc-10" value="Verificar datos" style="endArrow=open;endFill=1;endSize=12;html=1;rounded=0;" edge="1" parent="1">
          <mxGeometry x="0.001" width="160" relative="1" as="geometry">
            <mxPoint x="429.92857142857133" y="269.71" as="sourcePoint" />
            <mxPoint x="579.5" y="269.71" as="targetPoint" />
            <mxPoint as="offset" />
          </mxGeometry>
        </mxCell>
        <mxCell id="3lcU_TLY3dDV2jvTnfjc-19" value="Datos Verificados" style="endArrow=open;endSize=12;dashed=1;html=1;rounded=0;exitX=0.086;exitY=1.014;exitDx=0;exitDy=0;exitPerimeter=0;" edge="1" parent="1" source="3lcU_TLY3dDV2jvTnfjc-16" target="3lcU_TLY3dDV2jvTnfjc-4">
          <mxGeometry x="0.0002" width="160" relative="1" as="geometry">
            <mxPoint x="330" y="290" as="sourcePoint" />
            <mxPoint x="490" y="290" as="targetPoint" />
            <mxPoint as="offset" />
          </mxGeometry>
        </mxCell>
        <mxCell id="3lcU_TLY3dDV2jvTnfjc-22" value="Ingresa Monto a Retirar" style="endArrow=open;endFill=1;endSize=12;html=1;rounded=0;" edge="1" parent="1" source="3lcU_TLY3dDV2jvTnfjc-30">
          <mxGeometry x="0.004" width="160" relative="1" as="geometry">
            <mxPoint x="140" y="380" as="sourcePoint" />
            <mxPoint x="275" y="380" as="targetPoint" />
            <mxPoint as="offset" />
          </mxGeometry>
        </mxCell>
        <mxCell id="3lcU_TLY3dDV2jvTnfjc-23" value="Cantidad de retiro" style="endArrow=open;endFill=1;endSize=12;html=1;rounded=0;" edge="1" parent="1">
          <mxGeometry width="160" relative="1" as="geometry">
            <mxPoint x="279.92857142857133" y="410" as="sourcePoint" />
            <mxPoint x="429.5" y="410" as="targetPoint" />
          </mxGeometry>
        </mxCell>
        <mxCell id="3lcU_TLY3dDV2jvTnfjc-24" value="Confirmar Trans." style="endArrow=open;endFill=1;endSize=12;html=1;rounded=0;" edge="1" parent="1">
          <mxGeometry width="160" relative="1" as="geometry">
            <mxPoint x="429.92857142857133" y="440" as="sourcePoint" />
            <mxPoint x="579.5" y="440" as="targetPoint" />
          </mxGeometry>
        </mxCell>
        <mxCell id="3lcU_TLY3dDV2jvTnfjc-27" value="Libera efectivo" style="endArrow=open;endSize=12;dashed=1;html=1;rounded=0;" edge="1" parent="1" target="3lcU_TLY3dDV2jvTnfjc-29">
          <mxGeometry x="-0.0012" width="160" relative="1" as="geometry">
            <mxPoint x="581.04" y="480" as="sourcePoint" />
            <mxPoint x="278.96857142857135" y="480" as="targetPoint" />
            <mxPoint as="offset" />
          </mxGeometry>
        </mxCell>
        <mxCell id="3lcU_TLY3dDV2jvTnfjc-28" value="Retira efectivo" style="endArrow=open;endSize=12;dashed=1;html=1;rounded=0;" edge="1" parent="1" target="3lcU_TLY3dDV2jvTnfjc-30">
          <mxGeometry x="-0.004" width="160" relative="1" as="geometry">
            <mxPoint x="279.5" y="480" as="sourcePoint" />
            <mxPoint x="134.92857142857144" y="480" as="targetPoint" />
            <mxPoint as="offset" />
          </mxGeometry>
        </mxCell>
        <mxCell id="3lcU_TLY3dDV2jvTnfjc-32" value="" style="endArrow=open;endFill=1;endSize=12;html=1;rounded=0;" edge="1" parent="1">
          <mxGeometry width="160" relative="1" as="geometry">
            <mxPoint x="114.92857142857144" y="560" as="sourcePoint" />
            <mxPoint x="279.5" y="560" as="targetPoint" />
          </mxGeometry>
        </mxCell>
        <mxCell id="3lcU_TLY3dDV2jvTnfjc-33" value="" style="endArrow=open;endFill=1;endSize=12;html=1;rounded=0;" edge="1" parent="1">
          <mxGeometry width="160" relative="1" as="geometry">
            <mxPoint x="279.92857142857133" y="590" as="sourcePoint" />
            <mxPoint x="429.5" y="590" as="targetPoint" />
          </mxGeometry>
        </mxCell>
      </root>
    </mxGraphModel>
  </diagram>
</mxfile>
